<svg xmlns="http://www.w3.org/2000/svg" viewBox="0 0 800 800"><defs><radialGradient id="bg"><stop stop-color="#5b2630"/><stop offset=".42" stop-color="#160e18"/><stop offset="1" stop-color="#03050a"/></radialGradient><linearGradient id="armor" x1="0" y1="0" x2="1" y2="1"><stop stop-color="#69717f"/><stop offset=".3" stop-color="#151b25"/><stop offset=".75" stop-color="#05070c"/><stop offset="1" stop-color="#8d263c"/></linearGradient><linearGradient id="skin" x1="0" y1="0" x2="1" y2="1"><stop stop-color="#e7c5bb"/><stop offset="1" stop-color="#754d55"/></linearGradient><filter id="glow"><feGaussianBlur stdDeviation="18"/></filter></defs><rect width="800" height="800" rx="90" fill="url(#bg)"/><circle cx="620" cy="170" r="180" fill="#ff3d62" opacity=".2" filter="url(#glow)"/><path d="M-40 620L250 100 840 500" stroke="#d52d55" stroke-width="90" opacity=".07"/><path d="M110 650L250 270 390 100 560 240 700 650Z" fill="#05070c" stroke="#c83252" stroke-width="5"/><path d="M150 690Q185 470 290 365L390 330 535 380Q620 500 655 690Z" fill="url(#armor)" stroke="#454e5d" stroke-width="6"/><path d="M240 460L305 405 485 420 555 480 525 610 405 670 270 610Z" fill="#080b12" stroke="#a52a48" stroke-width="5"/><path d="M255 275Q275 145 390 102Q505 125 540 250L505 365Q465 425 390 440Q310 420 270 360Z" fill="url(#skin)" stroke="#080b11" stroke-width="10"/><path d="M245 285Q230 145 340 75Q480 25 565 185L525 285 475 210 410 165 340 205 300 275Z" fill="#111722" stroke="#4d5664" stroke-width="8"/><path d="M275 278L345 235 420 225 505 270 480 305 410 286 350 305Z" fill="#7d1f3b"/><path d="M305 318Q337 300 365 316M420 316Q450 300 480 318" fill="none" stroke="#0b0e15" stroke-width="12" stroke-linecap="round"/><path d="M355 360Q390 380 430 356" fill="none" stroke="#713e47" stroke-width="6"/><path d="M270 390L205 465 120 535M510 400L590 470 675 540" fill="none" stroke="#bd314f" stroke-width="18" stroke-linecap="round"/><path d="M205 465L145 520M590 470L650 525" stroke="#ff7b8e" stroke-width="5"/><path d="M310 590L395 550 500 595 470 690 320 690Z" fill="#0b1018" stroke="#596474" stroke-width="5"/><path d="M395 550V690" stroke="#9d2948" stroke-width="4"/><circle cx="395" cy="455" r="28" fill="#e8335b" opacity=".18" filter="url(#glow)"/><path d="M395 430v-65M360 440l-45-45M430 440l45-45" stroke="#ff536f" stroke-width="3" opacity=".7"/></svg>